<svg class="icon" width="64" height="64" viewBox="0 0 176.10153 67.620079">
        <path
        d="m 57.374577,58.8336 v -8.78562 l 17.809042,-0.003 17.80904,-0.003 1.878907,-1.07764 c 3.332901,-1.91156 3.561431,-2.59666 3.842301,-11.51883 0.16592,-5.27042 0.42759,-8.35763 0.83604,-9.86347 2.216153,-8.17032 8.915243,-15.42954 16.457513,-17.83356 4.9045,-1.56326 13.60152,-1.47832 18.60929,0.18174 5.92932,1.96556 12.33575,8.06213 14.47216,13.77218 1.62525,4.34389 1.87743,5.95005 2.0716,13.19514 0.21228,7.91914 0.5614,9.32076 2.78953,11.19971 2.2053,1.85966 2.80937,1.95159 12.82428,1.95159 h 9.32725 v 8.76752 8.76753 h -9.46603 c -11.02069,0 -13.68247,-0.36744 -18.11517,-2.5007 -6.85382,-3.29844 -11.30454,-8.47627 -13.70809,-15.94764 -0.69802,-2.16985 -0.85733,-3.69156 -1.05172,-10.04613 -0.18947,-6.19382 -0.34438,-7.72269 -0.89585,-8.84065 -2.22001,-4.50057 -9.45415,-5.78103 -13.55649,-2.39952 -2.37539,1.95799 -2.52372,2.5472 -2.78367,11.05752 -0.21459,7.02517 -0.31754,7.91783 -1.22187,10.59409 -1.48188,4.38548 -3.29383,7.34471 -6.38996,10.43591 -3.08409,3.07918 -6.28392,5.04977 -10.562093,6.50458 l -2.800733,0.9524 -19.087637,0.11316 -19.087639,0.11317 z"
        id="path1"/>
        
        <path
        d="m 155.36997,34.072 -1.55258,-0.13983 v -1.54616 c 0,-4.12921 2.30693,-9.41388 5.66164,-12.96948 3.7471,-3.97154 8.86438,-6.47989 13.69999,-6.71536 l 2.00922,-0.0978 0.10221,4.43198 0.10223,4.43197 -1.74614,0.24636 c -2.56551,0.36197 -5.26823,1.80327 -7.14611,3.81088 -2.12918,2.27625 -3.19635,4.39594 -3.44987,6.85236 l -0.20254,1.96261 -2.96275,-0.0638 c -1.62949,-0.0351 -3.66139,-0.12675 -4.5153,-0.20367 z"
        id="path2"/>
        
        <path
        d="M 19.942895,66.97827 C 12.784561,65.44432 5.7829899,60.02082 2.6482224,53.58161 0.0461512,48.23663 0.2137224,50.19381 0.1014968,23.83672 L 0,0 h 8.5950375 8.5950385 v 21.46459 c 0,12.8791 0.142748,21.96233 0.356886,22.70898 0.603472,2.10419 2.156373,3.96059 4.139906,4.94903 4.059267,2.02282 8.92393,0.70864 11.103729,-2.99964 1.00075,-1.70247 1.025597,-1.88401 1.237838,-9.04362 0.154964,-5.22746 0.398346,-7.98189 0.855405,-9.68081 0.995982,-3.70215 3.237971,-7.97443 5.506726,-10.49349 2.428581,-2.69652 7.164519,-5.92939 10.225709,-6.98031 3.267024,-1.1216 8.631105,-1.60684 12.695256,-1.14844 4.455919,0.5026 5.763885,0.87723 9.099317,2.60627 4.0853,2.11777 8.916544,7.17308 10.94205,11.44955 1.916575,4.04647 2.516145,7.32477 2.516145,13.7577 v 5.78658 H 77.14133 68.413621 l -0.164328,-5.38838 c -0.184999,-6.06615 -0.593828,-7.49403 -2.579288,-9.00841 -3.611226,-2.75442 -7.878418,-2.74436 -11.512023,0.0271 -2.198693,1.67703 -2.610289,3.18401 -2.627638,9.62059 -0.01865,6.92001 -0.405659,9.77296 -1.824993,13.45342 -2.4004,6.22444 -6.477584,10.67823 -12.605681,13.77004 -5.209717,2.62847 -11.296613,3.38326 -17.156776,2.1275 z"
        id="path3"/>
</svg>
